<mxfile host="Electron" modified="2023-05-27T16:48:18.260Z" agent="Mozilla/5.0 (Macintosh; Intel Mac OS X 10_15_7) AppleWebKit/537.36 (KHTML, like Gecko) draw.io/21.2.1 Chrome/112.0.5615.87 Electron/24.1.2 Safari/537.36" etag="6i4U07HVYCbUiGFdcxr3" version="21.2.1" type="device">
  <diagram name="Page-1" id="H1nZVYqxkzLZFgEqRADx">
    <mxGraphModel dx="1402" dy="5380" grid="1" gridSize="10" guides="1" tooltips="1" connect="1" arrows="1" fold="1" page="1" pageScale="1" pageWidth="850" pageHeight="1100" math="0" shadow="0">
      <root>
        <mxCell id="0" />
        <mxCell id="1" parent="0" />
        <mxCell id="AsBp8XiL8Dx4Y6rQVwFH-11629" value="R, W: 140, H: 121, ORDER: 19, GC: {60, 41, 39, 2, 37, 14, 13, 16, 10, 3, 5, 9, 19, 61, 4, 23, 11, 45, 34} " style="text;html=1;strokeColor=none;fillColor=none;align=center;verticalAlign=middle;whiteSpace=wrap;rounded=0;fontSize=32;" parent="1" vertex="1">
          <mxGeometry x="2950" width="1400" height="30" as="geometry" />
        </mxCell>
        <mxCell id="AsBp8XiL8Dx4Y6rQVwFH-11669" value="R, W: 140, H: 124, ORDER: 19, GC: {41, 51, 31, 10, 48, 15, 33, 21, 28, 12, 16, 11, 4, 7, 1, 3, 52, 45, 43} " style="text;html=1;strokeColor=none;fillColor=none;align=center;verticalAlign=middle;whiteSpace=wrap;rounded=0;fontSize=32;" parent="1" vertex="1">
          <mxGeometry x="2910" y="1340" width="1400" height="30" as="geometry" />
        </mxCell>
        <mxCell id="AsBp8XiL8Dx4Y6rQVwFH-11749" value="R, W: 140, H: 86, ORDER: 19, GC: {41, 24, 31, 17, 7, 44, 23, 15, 2, 42, 8, 9, 45, 13, 32, 11, 1, 10, 21} " style="text;html=1;strokeColor=none;fillColor=none;align=center;verticalAlign=middle;whiteSpace=wrap;rounded=0;fontSize=32;" parent="1" vertex="1">
          <mxGeometry x="2950" y="2700" width="1400" height="30" as="geometry" />
        </mxCell>
        <mxCell id="AsBp8XiL8Dx4Y6rQVwFH-11829" value="R, W: 140, H: 79, ORDER: 19, GC: {34, 23, 19, 22, 16, 3, 11, 12, 42, 25, 5, 37, 45, 18, 10, 8, 2, 32, 26} " style="text;html=1;strokeColor=none;fillColor=none;align=center;verticalAlign=middle;whiteSpace=wrap;rounded=0;fontSize=32;" parent="1" vertex="1">
          <mxGeometry x="2910" y="3740" width="1400" height="30" as="geometry" />
        </mxCell>
        <mxCell id="AsBp8XiL8Dx4Y6rQVwFH-18320" value="R, W: 140, H: 130, ORDER: 20, GC: {33, 28, 45, 5, 7, 16, 34, 11, 23, 36, 2, 9, 25, 44, 12, 35, 61, 41, 3, 38} " style="text;html=1;strokeColor=none;fillColor=none;align=center;verticalAlign=middle;whiteSpace=wrap;rounded=0;fontSize=32;" parent="1" vertex="1">
          <mxGeometry x="2920" y="4650" width="1400" height="30" as="geometry" />
        </mxCell>
        <mxCell id="AsBp8XiL8Dx4Y6rQVwFH-44745" value="S, W: 140, H: 140, ORDER: 23, GC: {47, 43, 50, 4, 16, 23, 24, 26, 33, 18, 9, 7, 15, 3, 30, 12, 22, 2, 28, 60, 44, 8, 36} " style="text;html=1;strokeColor=none;fillColor=none;align=center;verticalAlign=middle;whiteSpace=wrap;rounded=0;fontSize=32;" parent="1" vertex="1">
          <mxGeometry x="2960" y="6070" width="1400" height="30" as="geometry" />
        </mxCell>
        <mxCell id="AsBp8XiL8Dx4Y6rQVwFH-44985" value="S, W: 140, H: 140, ORDER: 23, GC: {53, 45, 42, 19, 23, 29, 16, 31, 4, 27, 33, 20, 13, 5, 2, 1, 28, 3, 8, 54, 10, 48, 38} " style="text;html=1;strokeColor=none;fillColor=none;align=center;verticalAlign=middle;whiteSpace=wrap;rounded=0;fontSize=32;" parent="1" vertex="1">
          <mxGeometry x="2940" y="7610" width="1400" height="30" as="geometry" />
        </mxCell>
        <mxCell id="AsBp8XiL8Dx4Y6rQVwFH-46959" value="R, W: 140, H: 128, ORDER: 25, GC: {39, 46, 32, 7, 55, 25, 28, 19, 36, 57, 30, 17, 16, 24, 6, 37, 3, 4, 8, 1, 9, 5, 2, 12, 10} " style="text;html=1;strokeColor=none;fillColor=none;align=center;verticalAlign=middle;whiteSpace=wrap;rounded=0;fontSize=32;" parent="1" vertex="1">
          <mxGeometry x="2940" y="9100" width="1400" height="30" as="geometry" />
        </mxCell>
        <mxCell id="gpTkN6G0r_nqj8FTX6VW-1" value="" style="group;flipV=1;" vertex="1" connectable="0" parent="1">
          <mxGeometry x="2950" y="50" width="1400" height="1210" as="geometry" />
        </mxCell>
        <mxCell id="761dnnyQ54j-Cl0NHfQN-11630" value="60" style="rounded=0;whiteSpace=wrap;html=1;fontSize=32;" parent="gpTkN6G0r_nqj8FTX6VW-1" vertex="1">
          <mxGeometry y="610" width="600" height="600" as="geometry" />
        </mxCell>
        <mxCell id="761dnnyQ54j-Cl0NHfQN-11631" value="41" style="rounded=0;whiteSpace=wrap;html=1;fontSize=32;" parent="gpTkN6G0r_nqj8FTX6VW-1" vertex="1">
          <mxGeometry x="600" y="800" width="410" height="410" as="geometry" />
        </mxCell>
        <mxCell id="761dnnyQ54j-Cl0NHfQN-11632" value="39" style="rounded=0;whiteSpace=wrap;html=1;fontSize=32;" parent="gpTkN6G0r_nqj8FTX6VW-1" vertex="1">
          <mxGeometry x="1010" y="820" width="390" height="390" as="geometry" />
        </mxCell>
        <mxCell id="761dnnyQ54j-Cl0NHfQN-11633" value="2" style="rounded=0;whiteSpace=wrap;html=1;fontSize=32;" parent="gpTkN6G0r_nqj8FTX6VW-1" vertex="1">
          <mxGeometry x="1010" y="800" width="20" height="20" as="geometry" />
        </mxCell>
        <mxCell id="761dnnyQ54j-Cl0NHfQN-11634" value="37" style="rounded=0;whiteSpace=wrap;html=1;fontSize=32;" parent="gpTkN6G0r_nqj8FTX6VW-1" vertex="1">
          <mxGeometry x="1030" y="450" width="370" height="370" as="geometry" />
        </mxCell>
        <mxCell id="761dnnyQ54j-Cl0NHfQN-11635" value="14" style="rounded=0;whiteSpace=wrap;html=1;fontSize=32;" parent="gpTkN6G0r_nqj8FTX6VW-1" vertex="1">
          <mxGeometry x="600" y="660" width="140" height="140" as="geometry" />
        </mxCell>
        <mxCell id="761dnnyQ54j-Cl0NHfQN-11636" value="13" style="rounded=0;whiteSpace=wrap;html=1;fontSize=32;" parent="gpTkN6G0r_nqj8FTX6VW-1" vertex="1">
          <mxGeometry x="740" y="670" width="130" height="130" as="geometry" />
        </mxCell>
        <mxCell id="761dnnyQ54j-Cl0NHfQN-11637" value="16" style="rounded=0;whiteSpace=wrap;html=1;fontSize=32;" parent="gpTkN6G0r_nqj8FTX6VW-1" vertex="1">
          <mxGeometry x="870" y="640" width="160" height="160" as="geometry" />
        </mxCell>
        <mxCell id="761dnnyQ54j-Cl0NHfQN-11638" value="10" style="rounded=0;whiteSpace=wrap;html=1;fontSize=32;" parent="gpTkN6G0r_nqj8FTX6VW-1" vertex="1">
          <mxGeometry x="740" y="570" width="100" height="100" as="geometry" />
        </mxCell>
        <mxCell id="761dnnyQ54j-Cl0NHfQN-11639" value="3" style="rounded=0;whiteSpace=wrap;html=1;fontSize=32;" parent="gpTkN6G0r_nqj8FTX6VW-1" vertex="1">
          <mxGeometry x="840" y="640" width="30" height="30" as="geometry" />
        </mxCell>
        <mxCell id="761dnnyQ54j-Cl0NHfQN-11640" value="5" style="rounded=0;whiteSpace=wrap;html=1;fontSize=32;" parent="gpTkN6G0r_nqj8FTX6VW-1" vertex="1">
          <mxGeometry x="600" y="610" width="50" height="50" as="geometry" />
        </mxCell>
        <mxCell id="761dnnyQ54j-Cl0NHfQN-11641" value="9" style="rounded=0;whiteSpace=wrap;html=1;fontSize=32;" parent="gpTkN6G0r_nqj8FTX6VW-1" vertex="1">
          <mxGeometry x="650" y="570" width="90" height="90" as="geometry" />
        </mxCell>
        <mxCell id="761dnnyQ54j-Cl0NHfQN-11642" value="19" style="rounded=0;whiteSpace=wrap;html=1;fontSize=32;" parent="gpTkN6G0r_nqj8FTX6VW-1" vertex="1">
          <mxGeometry x="840" y="450" width="190" height="190" as="geometry" />
        </mxCell>
        <mxCell id="761dnnyQ54j-Cl0NHfQN-11643" value="61" style="rounded=0;whiteSpace=wrap;html=1;fontSize=32;" parent="gpTkN6G0r_nqj8FTX6VW-1" vertex="1">
          <mxGeometry width="610" height="610" as="geometry" />
        </mxCell>
        <mxCell id="761dnnyQ54j-Cl0NHfQN-11644" value="4" style="rounded=0;whiteSpace=wrap;html=1;fontSize=32;" parent="gpTkN6G0r_nqj8FTX6VW-1" vertex="1">
          <mxGeometry x="610" y="570" width="40" height="40" as="geometry" />
        </mxCell>
        <mxCell id="761dnnyQ54j-Cl0NHfQN-11645" value="23" style="rounded=0;whiteSpace=wrap;html=1;fontSize=32;" parent="gpTkN6G0r_nqj8FTX6VW-1" vertex="1">
          <mxGeometry x="610" y="340" width="230" height="230" as="geometry" />
        </mxCell>
        <mxCell id="761dnnyQ54j-Cl0NHfQN-11646" value="11" style="rounded=0;whiteSpace=wrap;html=1;fontSize=32;" parent="gpTkN6G0r_nqj8FTX6VW-1" vertex="1">
          <mxGeometry x="840" y="340" width="110" height="110" as="geometry" />
        </mxCell>
        <mxCell id="761dnnyQ54j-Cl0NHfQN-11647" value="45" style="rounded=0;whiteSpace=wrap;html=1;fontSize=32;" parent="gpTkN6G0r_nqj8FTX6VW-1" vertex="1">
          <mxGeometry x="950" width="450" height="450" as="geometry" />
        </mxCell>
        <mxCell id="761dnnyQ54j-Cl0NHfQN-11648" value="34" style="rounded=0;whiteSpace=wrap;html=1;fontSize=32;" parent="gpTkN6G0r_nqj8FTX6VW-1" vertex="1">
          <mxGeometry x="610" width="340" height="340" as="geometry" />
        </mxCell>
        <mxCell id="gpTkN6G0r_nqj8FTX6VW-2" value="" style="group;flipV=1;" vertex="1" connectable="0" parent="1">
          <mxGeometry x="2910" y="1390" width="1400" height="1240" as="geometry" />
        </mxCell>
        <mxCell id="761dnnyQ54j-Cl0NHfQN-11670" value="41" style="rounded=0;whiteSpace=wrap;html=1;fontSize=32;" parent="gpTkN6G0r_nqj8FTX6VW-2" vertex="1">
          <mxGeometry y="830" width="410" height="410" as="geometry" />
        </mxCell>
        <mxCell id="761dnnyQ54j-Cl0NHfQN-11671" value="51" style="rounded=0;whiteSpace=wrap;html=1;fontSize=32;" parent="gpTkN6G0r_nqj8FTX6VW-2" vertex="1">
          <mxGeometry x="410" y="730" width="510" height="510" as="geometry" />
        </mxCell>
        <mxCell id="761dnnyQ54j-Cl0NHfQN-11672" value="31" style="rounded=0;whiteSpace=wrap;html=1;fontSize=32;" parent="gpTkN6G0r_nqj8FTX6VW-2" vertex="1">
          <mxGeometry y="520" width="310" height="310" as="geometry" />
        </mxCell>
        <mxCell id="761dnnyQ54j-Cl0NHfQN-11673" value="10" style="rounded=0;whiteSpace=wrap;html=1;fontSize=32;" parent="gpTkN6G0r_nqj8FTX6VW-2" vertex="1">
          <mxGeometry x="310" y="730" width="100" height="100" as="geometry" />
        </mxCell>
        <mxCell id="761dnnyQ54j-Cl0NHfQN-11674" value="48" style="rounded=0;whiteSpace=wrap;html=1;fontSize=32;" parent="gpTkN6G0r_nqj8FTX6VW-2" vertex="1">
          <mxGeometry x="920" y="760" width="480" height="480" as="geometry" />
        </mxCell>
        <mxCell id="761dnnyQ54j-Cl0NHfQN-11675" value="15" style="rounded=0;whiteSpace=wrap;html=1;fontSize=32;" parent="gpTkN6G0r_nqj8FTX6VW-2" vertex="1">
          <mxGeometry x="920" y="610" width="150" height="150" as="geometry" />
        </mxCell>
        <mxCell id="761dnnyQ54j-Cl0NHfQN-11676" value="33" style="rounded=0;whiteSpace=wrap;html=1;fontSize=32;" parent="gpTkN6G0r_nqj8FTX6VW-2" vertex="1">
          <mxGeometry x="1070" y="430" width="330" height="330" as="geometry" />
        </mxCell>
        <mxCell id="761dnnyQ54j-Cl0NHfQN-11677" value="21" style="rounded=0;whiteSpace=wrap;html=1;fontSize=32;" parent="gpTkN6G0r_nqj8FTX6VW-2" vertex="1">
          <mxGeometry x="310" y="520" width="210" height="210" as="geometry" />
        </mxCell>
        <mxCell id="761dnnyQ54j-Cl0NHfQN-11678" value="28" style="rounded=0;whiteSpace=wrap;html=1;fontSize=32;" parent="gpTkN6G0r_nqj8FTX6VW-2" vertex="1">
          <mxGeometry x="520" y="450" width="280" height="280" as="geometry" />
        </mxCell>
        <mxCell id="761dnnyQ54j-Cl0NHfQN-11679" value="12" style="rounded=0;whiteSpace=wrap;html=1;fontSize=32;" parent="gpTkN6G0r_nqj8FTX6VW-2" vertex="1">
          <mxGeometry x="800" y="610" width="120" height="120" as="geometry" />
        </mxCell>
        <mxCell id="761dnnyQ54j-Cl0NHfQN-11680" value="16" style="rounded=0;whiteSpace=wrap;html=1;fontSize=32;" parent="gpTkN6G0r_nqj8FTX6VW-2" vertex="1">
          <mxGeometry x="800" y="450" width="160" height="160" as="geometry" />
        </mxCell>
        <mxCell id="761dnnyQ54j-Cl0NHfQN-11681" value="11" style="rounded=0;whiteSpace=wrap;html=1;fontSize=32;" parent="gpTkN6G0r_nqj8FTX6VW-2" vertex="1">
          <mxGeometry x="960" y="500" width="110" height="110" as="geometry" />
        </mxCell>
        <mxCell id="761dnnyQ54j-Cl0NHfQN-11682" value="4" style="rounded=0;whiteSpace=wrap;html=1;fontSize=32;" parent="gpTkN6G0r_nqj8FTX6VW-2" vertex="1">
          <mxGeometry x="960" y="460" width="40" height="40" as="geometry" />
        </mxCell>
        <mxCell id="761dnnyQ54j-Cl0NHfQN-11683" value="7" style="rounded=0;whiteSpace=wrap;html=1;fontSize=32;" parent="gpTkN6G0r_nqj8FTX6VW-2" vertex="1">
          <mxGeometry x="1000" y="430" width="70" height="70" as="geometry" />
        </mxCell>
        <mxCell id="761dnnyQ54j-Cl0NHfQN-11684" value="1" style="rounded=0;whiteSpace=wrap;html=1;fontSize=32;" parent="gpTkN6G0r_nqj8FTX6VW-2" vertex="1">
          <mxGeometry x="960" y="450" width="10" height="10" as="geometry" />
        </mxCell>
        <mxCell id="761dnnyQ54j-Cl0NHfQN-11685" value="3" style="rounded=0;whiteSpace=wrap;html=1;fontSize=32;" parent="gpTkN6G0r_nqj8FTX6VW-2" vertex="1">
          <mxGeometry x="970" y="430" width="30" height="30" as="geometry" />
        </mxCell>
        <mxCell id="761dnnyQ54j-Cl0NHfQN-11686" value="52" style="rounded=0;whiteSpace=wrap;html=1;fontSize=32;" parent="gpTkN6G0r_nqj8FTX6VW-2" vertex="1">
          <mxGeometry width="520" height="520" as="geometry" />
        </mxCell>
        <mxCell id="761dnnyQ54j-Cl0NHfQN-11687" value="45" style="rounded=0;whiteSpace=wrap;html=1;fontSize=32;" parent="gpTkN6G0r_nqj8FTX6VW-2" vertex="1">
          <mxGeometry x="520" width="450" height="450" as="geometry" />
        </mxCell>
        <mxCell id="761dnnyQ54j-Cl0NHfQN-11688" value="43" style="rounded=0;whiteSpace=wrap;html=1;fontSize=32;" parent="gpTkN6G0r_nqj8FTX6VW-2" vertex="1">
          <mxGeometry x="970" width="430" height="430" as="geometry" />
        </mxCell>
        <mxCell id="gpTkN6G0r_nqj8FTX6VW-3" value="" style="group;flipV=1;" vertex="1" connectable="0" parent="1">
          <mxGeometry x="2950" y="2750" width="1400" height="860" as="geometry" />
        </mxCell>
        <mxCell id="761dnnyQ54j-Cl0NHfQN-11750" value="41" style="rounded=0;whiteSpace=wrap;html=1;fontSize=32;" parent="gpTkN6G0r_nqj8FTX6VW-3" vertex="1">
          <mxGeometry y="450" width="410" height="410" as="geometry" />
        </mxCell>
        <mxCell id="761dnnyQ54j-Cl0NHfQN-11751" value="24" style="rounded=0;whiteSpace=wrap;html=1;fontSize=32;" parent="gpTkN6G0r_nqj8FTX6VW-3" vertex="1">
          <mxGeometry x="410" y="620" width="240" height="240" as="geometry" />
        </mxCell>
        <mxCell id="761dnnyQ54j-Cl0NHfQN-11752" value="31" style="rounded=0;whiteSpace=wrap;html=1;fontSize=32;" parent="gpTkN6G0r_nqj8FTX6VW-3" vertex="1">
          <mxGeometry x="650" y="550" width="310" height="310" as="geometry" />
        </mxCell>
        <mxCell id="761dnnyQ54j-Cl0NHfQN-11753" value="17" style="rounded=0;whiteSpace=wrap;html=1;fontSize=32;" parent="gpTkN6G0r_nqj8FTX6VW-3" vertex="1">
          <mxGeometry x="410" y="450" width="170" height="170" as="geometry" />
        </mxCell>
        <mxCell id="761dnnyQ54j-Cl0NHfQN-11754" value="7" style="rounded=0;whiteSpace=wrap;html=1;fontSize=32;" parent="gpTkN6G0r_nqj8FTX6VW-3" vertex="1">
          <mxGeometry x="580" y="550" width="70" height="70" as="geometry" />
        </mxCell>
        <mxCell id="761dnnyQ54j-Cl0NHfQN-11755" value="44" style="rounded=0;whiteSpace=wrap;html=1;fontSize=32;" parent="gpTkN6G0r_nqj8FTX6VW-3" vertex="1">
          <mxGeometry x="960" y="420" width="440" height="440" as="geometry" />
        </mxCell>
        <mxCell id="761dnnyQ54j-Cl0NHfQN-11756" value="23" style="rounded=0;whiteSpace=wrap;html=1;fontSize=32;" parent="gpTkN6G0r_nqj8FTX6VW-3" vertex="1">
          <mxGeometry x="580" y="320" width="230" height="230" as="geometry" />
        </mxCell>
        <mxCell id="761dnnyQ54j-Cl0NHfQN-11757" value="15" style="rounded=0;whiteSpace=wrap;html=1;fontSize=32;" parent="gpTkN6G0r_nqj8FTX6VW-3" vertex="1">
          <mxGeometry x="810" y="400" width="150" height="150" as="geometry" />
        </mxCell>
        <mxCell id="761dnnyQ54j-Cl0NHfQN-11758" value="2" style="rounded=0;whiteSpace=wrap;html=1;fontSize=32;" parent="gpTkN6G0r_nqj8FTX6VW-3" vertex="1">
          <mxGeometry x="960" y="400" width="20" height="20" as="geometry" />
        </mxCell>
        <mxCell id="761dnnyQ54j-Cl0NHfQN-11759" value="42" style="rounded=0;whiteSpace=wrap;html=1;fontSize=32;" parent="gpTkN6G0r_nqj8FTX6VW-3" vertex="1">
          <mxGeometry x="980" width="420" height="420" as="geometry" />
        </mxCell>
        <mxCell id="761dnnyQ54j-Cl0NHfQN-11760" value="8" style="rounded=0;whiteSpace=wrap;html=1;fontSize=32;" parent="gpTkN6G0r_nqj8FTX6VW-3" vertex="1">
          <mxGeometry x="810" y="320" width="80" height="80" as="geometry" />
        </mxCell>
        <mxCell id="761dnnyQ54j-Cl0NHfQN-11761" value="9" style="rounded=0;whiteSpace=wrap;html=1;fontSize=32;" parent="gpTkN6G0r_nqj8FTX6VW-3" vertex="1">
          <mxGeometry x="890" y="310" width="90" height="90" as="geometry" />
        </mxCell>
        <mxCell id="761dnnyQ54j-Cl0NHfQN-11762" value="45" style="rounded=0;whiteSpace=wrap;html=1;fontSize=32;" parent="gpTkN6G0r_nqj8FTX6VW-3" vertex="1">
          <mxGeometry width="450" height="450" as="geometry" />
        </mxCell>
        <mxCell id="761dnnyQ54j-Cl0NHfQN-11763" value="13" style="rounded=0;whiteSpace=wrap;html=1;fontSize=32;" parent="gpTkN6G0r_nqj8FTX6VW-3" vertex="1">
          <mxGeometry x="450" y="320" width="130" height="130" as="geometry" />
        </mxCell>
        <mxCell id="761dnnyQ54j-Cl0NHfQN-11764" value="32" style="rounded=0;whiteSpace=wrap;html=1;fontSize=32;" parent="gpTkN6G0r_nqj8FTX6VW-3" vertex="1">
          <mxGeometry x="450" width="320" height="320" as="geometry" />
        </mxCell>
        <mxCell id="761dnnyQ54j-Cl0NHfQN-11765" value="11" style="rounded=0;whiteSpace=wrap;html=1;fontSize=32;" parent="gpTkN6G0r_nqj8FTX6VW-3" vertex="1">
          <mxGeometry x="770" y="210" width="110" height="110" as="geometry" />
        </mxCell>
        <mxCell id="761dnnyQ54j-Cl0NHfQN-11766" value="1" style="rounded=0;whiteSpace=wrap;html=1;fontSize=32;" parent="gpTkN6G0r_nqj8FTX6VW-3" vertex="1">
          <mxGeometry x="880" y="310" width="10" height="10" as="geometry" />
        </mxCell>
        <mxCell id="761dnnyQ54j-Cl0NHfQN-11767" value="10" style="rounded=0;whiteSpace=wrap;html=1;fontSize=32;" parent="gpTkN6G0r_nqj8FTX6VW-3" vertex="1">
          <mxGeometry x="880" y="210" width="100" height="100" as="geometry" />
        </mxCell>
        <mxCell id="761dnnyQ54j-Cl0NHfQN-11768" value="21" style="rounded=0;whiteSpace=wrap;html=1;fontSize=32;" parent="gpTkN6G0r_nqj8FTX6VW-3" vertex="1">
          <mxGeometry x="770" width="210" height="210" as="geometry" />
        </mxCell>
        <mxCell id="gpTkN6G0r_nqj8FTX6VW-4" value="" style="group;flipV=1;" vertex="1" connectable="0" parent="1">
          <mxGeometry x="2910" y="3790" width="1400" height="790" as="geometry" />
        </mxCell>
        <mxCell id="761dnnyQ54j-Cl0NHfQN-11830" value="34" style="rounded=0;whiteSpace=wrap;html=1;fontSize=32;" parent="gpTkN6G0r_nqj8FTX6VW-4" vertex="1">
          <mxGeometry y="450" width="340" height="340" as="geometry" />
        </mxCell>
        <mxCell id="761dnnyQ54j-Cl0NHfQN-11831" value="23" style="rounded=0;whiteSpace=wrap;html=1;fontSize=32;" parent="gpTkN6G0r_nqj8FTX6VW-4" vertex="1">
          <mxGeometry x="340" y="560" width="230" height="230" as="geometry" />
        </mxCell>
        <mxCell id="761dnnyQ54j-Cl0NHfQN-11832" value="19" style="rounded=0;whiteSpace=wrap;html=1;fontSize=32;" parent="gpTkN6G0r_nqj8FTX6VW-4" vertex="1">
          <mxGeometry x="570" y="600" width="190" height="190" as="geometry" />
        </mxCell>
        <mxCell id="761dnnyQ54j-Cl0NHfQN-11833" value="22" style="rounded=0;whiteSpace=wrap;html=1;fontSize=32;" parent="gpTkN6G0r_nqj8FTX6VW-4" vertex="1">
          <mxGeometry x="760" y="570" width="220" height="220" as="geometry" />
        </mxCell>
        <mxCell id="761dnnyQ54j-Cl0NHfQN-11834" value="16" style="rounded=0;whiteSpace=wrap;html=1;fontSize=32;" parent="gpTkN6G0r_nqj8FTX6VW-4" vertex="1">
          <mxGeometry x="570" y="440" width="160" height="160" as="geometry" />
        </mxCell>
        <mxCell id="761dnnyQ54j-Cl0NHfQN-11835" value="3" style="rounded=0;whiteSpace=wrap;html=1;fontSize=32;" parent="gpTkN6G0r_nqj8FTX6VW-4" vertex="1">
          <mxGeometry x="730" y="570" width="30" height="30" as="geometry" />
        </mxCell>
        <mxCell id="761dnnyQ54j-Cl0NHfQN-11836" value="11" style="rounded=0;whiteSpace=wrap;html=1;fontSize=32;" parent="gpTkN6G0r_nqj8FTX6VW-4" vertex="1">
          <mxGeometry x="340" y="450" width="110" height="110" as="geometry" />
        </mxCell>
        <mxCell id="761dnnyQ54j-Cl0NHfQN-11837" value="12" style="rounded=0;whiteSpace=wrap;html=1;fontSize=32;" parent="gpTkN6G0r_nqj8FTX6VW-4" vertex="1">
          <mxGeometry x="450" y="440" width="120" height="120" as="geometry" />
        </mxCell>
        <mxCell id="761dnnyQ54j-Cl0NHfQN-11838" value="42" style="rounded=0;whiteSpace=wrap;html=1;fontSize=32;" parent="gpTkN6G0r_nqj8FTX6VW-4" vertex="1">
          <mxGeometry x="980" y="370" width="420" height="420" as="geometry" />
        </mxCell>
        <mxCell id="761dnnyQ54j-Cl0NHfQN-11839" value="25" style="rounded=0;whiteSpace=wrap;html=1;fontSize=32;" parent="gpTkN6G0r_nqj8FTX6VW-4" vertex="1">
          <mxGeometry x="730" y="320" width="250" height="250" as="geometry" />
        </mxCell>
        <mxCell id="761dnnyQ54j-Cl0NHfQN-11840" value="5" style="rounded=0;whiteSpace=wrap;html=1;fontSize=32;" parent="gpTkN6G0r_nqj8FTX6VW-4" vertex="1">
          <mxGeometry x="980" y="320" width="50" height="50" as="geometry" />
        </mxCell>
        <mxCell id="761dnnyQ54j-Cl0NHfQN-11841" value="37" style="rounded=0;whiteSpace=wrap;html=1;fontSize=32;" parent="gpTkN6G0r_nqj8FTX6VW-4" vertex="1">
          <mxGeometry x="1030" width="370" height="370" as="geometry" />
        </mxCell>
        <mxCell id="761dnnyQ54j-Cl0NHfQN-11842" value="45" style="rounded=0;whiteSpace=wrap;html=1;fontSize=32;" parent="gpTkN6G0r_nqj8FTX6VW-4" vertex="1">
          <mxGeometry width="450" height="450" as="geometry" />
        </mxCell>
        <mxCell id="761dnnyQ54j-Cl0NHfQN-11843" value="18" style="rounded=0;whiteSpace=wrap;html=1;fontSize=32;" parent="gpTkN6G0r_nqj8FTX6VW-4" vertex="1">
          <mxGeometry x="450" y="260" width="180" height="180" as="geometry" />
        </mxCell>
        <mxCell id="761dnnyQ54j-Cl0NHfQN-11844" value="10" style="rounded=0;whiteSpace=wrap;html=1;fontSize=32;" parent="gpTkN6G0r_nqj8FTX6VW-4" vertex="1">
          <mxGeometry x="630" y="340" width="100" height="100" as="geometry" />
        </mxCell>
        <mxCell id="761dnnyQ54j-Cl0NHfQN-11845" value="8" style="rounded=0;whiteSpace=wrap;html=1;fontSize=32;" parent="gpTkN6G0r_nqj8FTX6VW-4" vertex="1">
          <mxGeometry x="630" y="260" width="80" height="80" as="geometry" />
        </mxCell>
        <mxCell id="761dnnyQ54j-Cl0NHfQN-11846" value="2" style="rounded=0;whiteSpace=wrap;html=1;fontSize=32;" parent="gpTkN6G0r_nqj8FTX6VW-4" vertex="1">
          <mxGeometry x="710" y="320" width="20" height="20" as="geometry" />
        </mxCell>
        <mxCell id="761dnnyQ54j-Cl0NHfQN-11847" value="32" style="rounded=0;whiteSpace=wrap;html=1;fontSize=32;" parent="gpTkN6G0r_nqj8FTX6VW-4" vertex="1">
          <mxGeometry x="710" width="320" height="320" as="geometry" />
        </mxCell>
        <mxCell id="761dnnyQ54j-Cl0NHfQN-11848" value="26" style="rounded=0;whiteSpace=wrap;html=1;fontSize=32;" parent="gpTkN6G0r_nqj8FTX6VW-4" vertex="1">
          <mxGeometry x="450" width="260" height="260" as="geometry" />
        </mxCell>
        <mxCell id="gpTkN6G0r_nqj8FTX6VW-5" value="" style="group;flipV=1;" vertex="1" connectable="0" parent="1">
          <mxGeometry x="2920" y="4700" width="1400" height="1300" as="geometry" />
        </mxCell>
        <mxCell id="761dnnyQ54j-Cl0NHfQN-18321" value="33" style="rounded=0;whiteSpace=wrap;html=1;fontSize=32;fillColor=#C3ABD0;strokeColor=#9673a6;" parent="gpTkN6G0r_nqj8FTX6VW-5" vertex="1">
          <mxGeometry y="970" width="330" height="330" as="geometry" />
        </mxCell>
        <mxCell id="761dnnyQ54j-Cl0NHfQN-18322" value="28" style="rounded=0;whiteSpace=wrap;html=1;fontSize=32;fillColor=#C3ABD0;strokeColor=#9673a6;" parent="gpTkN6G0r_nqj8FTX6VW-5" vertex="1">
          <mxGeometry x="330" y="1020" width="280" height="280" as="geometry" />
        </mxCell>
        <mxCell id="761dnnyQ54j-Cl0NHfQN-18323" value="45" style="rounded=0;whiteSpace=wrap;html=1;fontSize=32;fillColor=#dae8fc;strokeColor=#6c8ebf;" parent="gpTkN6G0r_nqj8FTX6VW-5" vertex="1">
          <mxGeometry x="610" y="850" width="450" height="450" as="geometry" />
        </mxCell>
        <mxCell id="761dnnyQ54j-Cl0NHfQN-18324" value="5" style="rounded=0;whiteSpace=wrap;html=1;fontSize=32;fillColor=#C3ABD0;strokeColor=#9673a6;" parent="gpTkN6G0r_nqj8FTX6VW-5" vertex="1">
          <mxGeometry x="330" y="970" width="50" height="50" as="geometry" />
        </mxCell>
        <mxCell id="761dnnyQ54j-Cl0NHfQN-18325" value="7" style="rounded=0;whiteSpace=wrap;html=1;fontSize=32;fillColor=#C3ABD0;strokeColor=#9673a6;" parent="gpTkN6G0r_nqj8FTX6VW-5" vertex="1">
          <mxGeometry x="380" y="950" width="70" height="70" as="geometry" />
        </mxCell>
        <mxCell id="761dnnyQ54j-Cl0NHfQN-18326" value="16" style="rounded=0;whiteSpace=wrap;html=1;fontSize=32;fillColor=#C3ABD0;strokeColor=#9673a6;" parent="gpTkN6G0r_nqj8FTX6VW-5" vertex="1">
          <mxGeometry x="450" y="860" width="160" height="160" as="geometry" />
        </mxCell>
        <mxCell id="761dnnyQ54j-Cl0NHfQN-18327" value="34" style="rounded=0;whiteSpace=wrap;html=1;fontSize=32;fillColor=#dae8fc;strokeColor=#6c8ebf;" parent="gpTkN6G0r_nqj8FTX6VW-5" vertex="1">
          <mxGeometry x="1060" y="960" width="340" height="340" as="geometry" />
        </mxCell>
        <mxCell id="761dnnyQ54j-Cl0NHfQN-18328" value="11" style="rounded=0;whiteSpace=wrap;html=1;fontSize=32;fillColor=#dae8fc;strokeColor=#6c8ebf;" parent="gpTkN6G0r_nqj8FTX6VW-5" vertex="1">
          <mxGeometry x="1060" y="850" width="110" height="110" as="geometry" />
        </mxCell>
        <mxCell id="761dnnyQ54j-Cl0NHfQN-18329" value="23" style="rounded=0;whiteSpace=wrap;html=1;fontSize=32;fillColor=#dae8fc;strokeColor=#6c8ebf;" parent="gpTkN6G0r_nqj8FTX6VW-5" vertex="1">
          <mxGeometry x="1170" y="730" width="230" height="230" as="geometry" />
        </mxCell>
        <mxCell id="761dnnyQ54j-Cl0NHfQN-18330" value="36" style="rounded=0;whiteSpace=wrap;html=1;fontSize=32;fillColor=#C3ABD0;strokeColor=#9673a6;" parent="gpTkN6G0r_nqj8FTX6VW-5" vertex="1">
          <mxGeometry y="610" width="360" height="360" as="geometry" />
        </mxCell>
        <mxCell id="761dnnyQ54j-Cl0NHfQN-18331" value="2" style="rounded=0;whiteSpace=wrap;html=1;fontSize=32;fillColor=#C3ABD0;strokeColor=#9673a6;" parent="gpTkN6G0r_nqj8FTX6VW-5" vertex="1">
          <mxGeometry x="360" y="950" width="20" height="20" as="geometry" />
        </mxCell>
        <mxCell id="761dnnyQ54j-Cl0NHfQN-18332" value="9" style="rounded=0;whiteSpace=wrap;html=1;fontSize=32;fillColor=#C3ABD0;strokeColor=#9673a6;" parent="gpTkN6G0r_nqj8FTX6VW-5" vertex="1">
          <mxGeometry x="360" y="860" width="90" height="90" as="geometry" />
        </mxCell>
        <mxCell id="761dnnyQ54j-Cl0NHfQN-18333" value="25" style="rounded=0;whiteSpace=wrap;html=1;fontSize=32;fillColor=#C3ABD0;strokeColor=#9673a6;" parent="gpTkN6G0r_nqj8FTX6VW-5" vertex="1">
          <mxGeometry x="360" y="610" width="250" height="250" as="geometry" />
        </mxCell>
        <mxCell id="761dnnyQ54j-Cl0NHfQN-18334" value="44" style="rounded=0;whiteSpace=wrap;html=1;fontSize=32;fillColor=#dae8fc;strokeColor=#6c8ebf;" parent="gpTkN6G0r_nqj8FTX6VW-5" vertex="1">
          <mxGeometry x="610" y="410" width="440" height="440" as="geometry" />
        </mxCell>
        <mxCell id="761dnnyQ54j-Cl0NHfQN-18335" value="12" style="rounded=0;whiteSpace=wrap;html=1;fontSize=32;fillColor=#dae8fc;strokeColor=#6c8ebf;" parent="gpTkN6G0r_nqj8FTX6VW-5" vertex="1">
          <mxGeometry x="1050" y="730" width="120" height="120" as="geometry" />
        </mxCell>
        <mxCell id="761dnnyQ54j-Cl0NHfQN-18336" value="35" style="rounded=0;whiteSpace=wrap;html=1;fontSize=32;fillColor=#dae8fc;strokeColor=#6c8ebf;" parent="gpTkN6G0r_nqj8FTX6VW-5" vertex="1">
          <mxGeometry x="1050" y="380" width="350" height="350" as="geometry" />
        </mxCell>
        <mxCell id="761dnnyQ54j-Cl0NHfQN-18337" value="61" style="rounded=0;whiteSpace=wrap;html=1;fontSize=32;fillColor=#e1d5e7;strokeColor=#9673a6;" parent="gpTkN6G0r_nqj8FTX6VW-5" vertex="1">
          <mxGeometry width="610" height="610" as="geometry" />
        </mxCell>
        <mxCell id="761dnnyQ54j-Cl0NHfQN-18338" value="41" style="rounded=0;whiteSpace=wrap;html=1;fontSize=32;fillColor=#dae8fc;strokeColor=#6c8ebf;" parent="gpTkN6G0r_nqj8FTX6VW-5" vertex="1">
          <mxGeometry x="610" width="410" height="410" as="geometry" />
        </mxCell>
        <mxCell id="761dnnyQ54j-Cl0NHfQN-18339" value="3" style="rounded=0;whiteSpace=wrap;html=1;fontSize=32;fillColor=#dae8fc;strokeColor=#6c8ebf;" parent="gpTkN6G0r_nqj8FTX6VW-5" vertex="1">
          <mxGeometry x="1020" y="380" width="30" height="30" as="geometry" />
        </mxCell>
        <mxCell id="761dnnyQ54j-Cl0NHfQN-18340" value="38" style="rounded=0;whiteSpace=wrap;html=1;fontSize=32;fillColor=#dae8fc;strokeColor=#6c8ebf;" parent="gpTkN6G0r_nqj8FTX6VW-5" vertex="1">
          <mxGeometry x="1020" width="380" height="380" as="geometry" />
        </mxCell>
        <mxCell id="gpTkN6G0r_nqj8FTX6VW-6" value="" style="group;flipV=1;" vertex="1" connectable="0" parent="1">
          <mxGeometry x="2960" y="6120" width="1400" height="1400" as="geometry" />
        </mxCell>
        <mxCell id="761dnnyQ54j-Cl0NHfQN-44746" value="47" style="rounded=0;whiteSpace=wrap;html=1;fontSize=32;" parent="gpTkN6G0r_nqj8FTX6VW-6" vertex="1">
          <mxGeometry y="930" width="470" height="470" as="geometry" />
        </mxCell>
        <mxCell id="761dnnyQ54j-Cl0NHfQN-44747" value="43" style="rounded=0;whiteSpace=wrap;html=1;fontSize=32;" parent="gpTkN6G0r_nqj8FTX6VW-6" vertex="1">
          <mxGeometry x="470" y="970" width="430" height="430" as="geometry" />
        </mxCell>
        <mxCell id="761dnnyQ54j-Cl0NHfQN-44748" value="50" style="rounded=0;whiteSpace=wrap;html=1;fontSize=32;" parent="gpTkN6G0r_nqj8FTX6VW-6" vertex="1">
          <mxGeometry x="900" y="900" width="500" height="500" as="geometry" />
        </mxCell>
        <mxCell id="761dnnyQ54j-Cl0NHfQN-44749" value="4" style="rounded=0;whiteSpace=wrap;html=1;fontSize=32;" parent="gpTkN6G0r_nqj8FTX6VW-6" vertex="1">
          <mxGeometry x="470" y="930" width="40" height="40" as="geometry" />
        </mxCell>
        <mxCell id="761dnnyQ54j-Cl0NHfQN-44750" value="16" style="rounded=0;whiteSpace=wrap;html=1;fontSize=32;" parent="gpTkN6G0r_nqj8FTX6VW-6" vertex="1">
          <mxGeometry x="510" y="810" width="160" height="160" as="geometry" />
        </mxCell>
        <mxCell id="761dnnyQ54j-Cl0NHfQN-44751" value="23" style="rounded=0;whiteSpace=wrap;html=1;fontSize=32;" parent="gpTkN6G0r_nqj8FTX6VW-6" vertex="1">
          <mxGeometry x="670" y="740" width="230" height="230" as="geometry" />
        </mxCell>
        <mxCell id="761dnnyQ54j-Cl0NHfQN-44752" value="24" style="rounded=0;whiteSpace=wrap;html=1;fontSize=32;" parent="gpTkN6G0r_nqj8FTX6VW-6" vertex="1">
          <mxGeometry x="900" y="660" width="240" height="240" as="geometry" />
        </mxCell>
        <mxCell id="761dnnyQ54j-Cl0NHfQN-44753" value="26" style="rounded=0;whiteSpace=wrap;html=1;fontSize=32;" parent="gpTkN6G0r_nqj8FTX6VW-6" vertex="1">
          <mxGeometry x="1140" y="640" width="260" height="260" as="geometry" />
        </mxCell>
        <mxCell id="761dnnyQ54j-Cl0NHfQN-44754" value="33" style="rounded=0;whiteSpace=wrap;html=1;fontSize=32;" parent="gpTkN6G0r_nqj8FTX6VW-6" vertex="1">
          <mxGeometry y="600" width="330" height="330" as="geometry" />
        </mxCell>
        <mxCell id="761dnnyQ54j-Cl0NHfQN-44755" value="18" style="rounded=0;whiteSpace=wrap;html=1;fontSize=32;" parent="gpTkN6G0r_nqj8FTX6VW-6" vertex="1">
          <mxGeometry x="330" y="750" width="180" height="180" as="geometry" />
        </mxCell>
        <mxCell id="761dnnyQ54j-Cl0NHfQN-44756" value="9" style="rounded=0;whiteSpace=wrap;html=1;fontSize=32;" parent="gpTkN6G0r_nqj8FTX6VW-6" vertex="1">
          <mxGeometry x="510" y="720" width="90" height="90" as="geometry" />
        </mxCell>
        <mxCell id="761dnnyQ54j-Cl0NHfQN-44757" value="7" style="rounded=0;whiteSpace=wrap;html=1;fontSize=32;" parent="gpTkN6G0r_nqj8FTX6VW-6" vertex="1">
          <mxGeometry x="600" y="740" width="70" height="70" as="geometry" />
        </mxCell>
        <mxCell id="761dnnyQ54j-Cl0NHfQN-44758" value="15" style="rounded=0;whiteSpace=wrap;html=1;fontSize=32;" parent="gpTkN6G0r_nqj8FTX6VW-6" vertex="1">
          <mxGeometry x="330" y="600" width="150" height="150" as="geometry" />
        </mxCell>
        <mxCell id="761dnnyQ54j-Cl0NHfQN-44759" value="3" style="rounded=0;whiteSpace=wrap;html=1;fontSize=32;" parent="gpTkN6G0r_nqj8FTX6VW-6" vertex="1">
          <mxGeometry x="480" y="720" width="30" height="30" as="geometry" />
        </mxCell>
        <mxCell id="761dnnyQ54j-Cl0NHfQN-44760" value="30" style="rounded=0;whiteSpace=wrap;html=1;fontSize=32;" parent="gpTkN6G0r_nqj8FTX6VW-6" vertex="1">
          <mxGeometry x="600" y="440" width="300" height="300" as="geometry" />
        </mxCell>
        <mxCell id="761dnnyQ54j-Cl0NHfQN-44761" value="12" style="rounded=0;whiteSpace=wrap;html=1;fontSize=32;" parent="gpTkN6G0r_nqj8FTX6VW-6" vertex="1">
          <mxGeometry x="480" y="600" width="120" height="120" as="geometry" />
        </mxCell>
        <mxCell id="761dnnyQ54j-Cl0NHfQN-44762" value="22" style="rounded=0;whiteSpace=wrap;html=1;fontSize=32;" parent="gpTkN6G0r_nqj8FTX6VW-6" vertex="1">
          <mxGeometry x="900" y="440" width="220" height="220" as="geometry" />
        </mxCell>
        <mxCell id="761dnnyQ54j-Cl0NHfQN-44763" value="2" style="rounded=0;whiteSpace=wrap;html=1;fontSize=32;" parent="gpTkN6G0r_nqj8FTX6VW-6" vertex="1">
          <mxGeometry x="1120" y="640" width="20" height="20" as="geometry" />
        </mxCell>
        <mxCell id="761dnnyQ54j-Cl0NHfQN-44764" value="28" style="rounded=0;whiteSpace=wrap;html=1;fontSize=32;" parent="gpTkN6G0r_nqj8FTX6VW-6" vertex="1">
          <mxGeometry x="1120" y="360" width="280" height="280" as="geometry" />
        </mxCell>
        <mxCell id="761dnnyQ54j-Cl0NHfQN-44765" value="60" style="rounded=0;whiteSpace=wrap;html=1;fontSize=32;" parent="gpTkN6G0r_nqj8FTX6VW-6" vertex="1">
          <mxGeometry width="600" height="600" as="geometry" />
        </mxCell>
        <mxCell id="761dnnyQ54j-Cl0NHfQN-44766" value="44" style="rounded=0;whiteSpace=wrap;html=1;fontSize=32;" parent="gpTkN6G0r_nqj8FTX6VW-6" vertex="1">
          <mxGeometry x="600" width="440" height="440" as="geometry" />
        </mxCell>
        <mxCell id="761dnnyQ54j-Cl0NHfQN-44767" value="8" style="rounded=0;whiteSpace=wrap;html=1;fontSize=32;" parent="gpTkN6G0r_nqj8FTX6VW-6" vertex="1">
          <mxGeometry x="1040" y="360" width="80" height="80" as="geometry" />
        </mxCell>
        <mxCell id="761dnnyQ54j-Cl0NHfQN-44768" value="36" style="rounded=0;whiteSpace=wrap;html=1;fontSize=32;" parent="gpTkN6G0r_nqj8FTX6VW-6" vertex="1">
          <mxGeometry x="1040" width="360" height="360" as="geometry" />
        </mxCell>
        <mxCell id="gpTkN6G0r_nqj8FTX6VW-8" value="" style="group;flipV=1;" vertex="1" connectable="0" parent="1">
          <mxGeometry x="2940" y="7660" width="1400" height="1400" as="geometry" />
        </mxCell>
        <mxCell id="761dnnyQ54j-Cl0NHfQN-44986" value="53" style="rounded=0;whiteSpace=wrap;html=1;fontSize=32;" parent="gpTkN6G0r_nqj8FTX6VW-8" vertex="1">
          <mxGeometry y="870" width="530" height="530" as="geometry" />
        </mxCell>
        <mxCell id="761dnnyQ54j-Cl0NHfQN-44987" value="45" style="rounded=0;whiteSpace=wrap;html=1;fontSize=32;" parent="gpTkN6G0r_nqj8FTX6VW-8" vertex="1">
          <mxGeometry x="530" y="950" width="450" height="450" as="geometry" />
        </mxCell>
        <mxCell id="761dnnyQ54j-Cl0NHfQN-44988" value="42" style="rounded=0;whiteSpace=wrap;html=1;fontSize=32;" parent="gpTkN6G0r_nqj8FTX6VW-8" vertex="1">
          <mxGeometry x="980" y="980" width="420" height="420" as="geometry" />
        </mxCell>
        <mxCell id="761dnnyQ54j-Cl0NHfQN-44989" value="19" style="rounded=0;whiteSpace=wrap;html=1;fontSize=32;" parent="gpTkN6G0r_nqj8FTX6VW-8" vertex="1">
          <mxGeometry x="980" y="790" width="190" height="190" as="geometry" />
        </mxCell>
        <mxCell id="761dnnyQ54j-Cl0NHfQN-44990" value="23" style="rounded=0;whiteSpace=wrap;html=1;fontSize=32;" parent="gpTkN6G0r_nqj8FTX6VW-8" vertex="1">
          <mxGeometry x="1170" y="750" width="230" height="230" as="geometry" />
        </mxCell>
        <mxCell id="761dnnyQ54j-Cl0NHfQN-44991" value="29" style="rounded=0;whiteSpace=wrap;html=1;fontSize=32;" parent="gpTkN6G0r_nqj8FTX6VW-8" vertex="1">
          <mxGeometry x="530" y="660" width="290" height="290" as="geometry" />
        </mxCell>
        <mxCell id="761dnnyQ54j-Cl0NHfQN-44992" value="16" style="rounded=0;whiteSpace=wrap;html=1;fontSize=32;" parent="gpTkN6G0r_nqj8FTX6VW-8" vertex="1">
          <mxGeometry x="820" y="790" width="160" height="160" as="geometry" />
        </mxCell>
        <mxCell id="761dnnyQ54j-Cl0NHfQN-44993" value="31" style="rounded=0;whiteSpace=wrap;html=1;fontSize=32;" parent="gpTkN6G0r_nqj8FTX6VW-8" vertex="1">
          <mxGeometry x="820" y="480" width="310" height="310" as="geometry" />
        </mxCell>
        <mxCell id="761dnnyQ54j-Cl0NHfQN-44994" value="4" style="rounded=0;whiteSpace=wrap;html=1;fontSize=32;" parent="gpTkN6G0r_nqj8FTX6VW-8" vertex="1">
          <mxGeometry x="1130" y="750" width="40" height="40" as="geometry" />
        </mxCell>
        <mxCell id="761dnnyQ54j-Cl0NHfQN-44995" value="27" style="rounded=0;whiteSpace=wrap;html=1;fontSize=32;" parent="gpTkN6G0r_nqj8FTX6VW-8" vertex="1">
          <mxGeometry x="1130" y="480" width="270" height="270" as="geometry" />
        </mxCell>
        <mxCell id="761dnnyQ54j-Cl0NHfQN-44996" value="33" style="rounded=0;whiteSpace=wrap;html=1;fontSize=32;" parent="gpTkN6G0r_nqj8FTX6VW-8" vertex="1">
          <mxGeometry y="540" width="330" height="330" as="geometry" />
        </mxCell>
        <mxCell id="761dnnyQ54j-Cl0NHfQN-44997" value="20" style="rounded=0;whiteSpace=wrap;html=1;fontSize=32;" parent="gpTkN6G0r_nqj8FTX6VW-8" vertex="1">
          <mxGeometry x="330" y="670" width="200" height="200" as="geometry" />
        </mxCell>
        <mxCell id="761dnnyQ54j-Cl0NHfQN-44998" value="13" style="rounded=0;whiteSpace=wrap;html=1;fontSize=32;" parent="gpTkN6G0r_nqj8FTX6VW-8" vertex="1">
          <mxGeometry x="330" y="540" width="130" height="130" as="geometry" />
        </mxCell>
        <mxCell id="761dnnyQ54j-Cl0NHfQN-44999" value="5" style="rounded=0;whiteSpace=wrap;html=1;fontSize=32;" parent="gpTkN6G0r_nqj8FTX6VW-8" vertex="1">
          <mxGeometry x="460" y="620" width="50" height="50" as="geometry" />
        </mxCell>
        <mxCell id="761dnnyQ54j-Cl0NHfQN-45000" value="2" style="rounded=0;whiteSpace=wrap;html=1;fontSize=32;" parent="gpTkN6G0r_nqj8FTX6VW-8" vertex="1">
          <mxGeometry x="510" y="650" width="20" height="20" as="geometry" />
        </mxCell>
        <mxCell id="761dnnyQ54j-Cl0NHfQN-45001" value="1" style="rounded=0;whiteSpace=wrap;html=1;fontSize=32;" parent="gpTkN6G0r_nqj8FTX6VW-8" vertex="1">
          <mxGeometry x="530" y="650" width="10" height="10" as="geometry" />
        </mxCell>
        <mxCell id="761dnnyQ54j-Cl0NHfQN-45002" value="28" style="rounded=0;whiteSpace=wrap;html=1;fontSize=32;" parent="gpTkN6G0r_nqj8FTX6VW-8" vertex="1">
          <mxGeometry x="540" y="380" width="280" height="280" as="geometry" />
        </mxCell>
        <mxCell id="761dnnyQ54j-Cl0NHfQN-45003" value="3" style="rounded=0;whiteSpace=wrap;html=1;fontSize=32;" parent="gpTkN6G0r_nqj8FTX6VW-8" vertex="1">
          <mxGeometry x="510" y="620" width="30" height="30" as="geometry" />
        </mxCell>
        <mxCell id="761dnnyQ54j-Cl0NHfQN-45004" value="8" style="rounded=0;whiteSpace=wrap;html=1;fontSize=32;" parent="gpTkN6G0r_nqj8FTX6VW-8" vertex="1">
          <mxGeometry x="460" y="540" width="80" height="80" as="geometry" />
        </mxCell>
        <mxCell id="761dnnyQ54j-Cl0NHfQN-45005" value="54" style="rounded=0;whiteSpace=wrap;html=1;fontSize=32;" parent="gpTkN6G0r_nqj8FTX6VW-8" vertex="1">
          <mxGeometry width="540" height="540" as="geometry" />
        </mxCell>
        <mxCell id="761dnnyQ54j-Cl0NHfQN-45006" value="10" style="rounded=0;whiteSpace=wrap;html=1;fontSize=32;" parent="gpTkN6G0r_nqj8FTX6VW-8" vertex="1">
          <mxGeometry x="820" y="380" width="100" height="100" as="geometry" />
        </mxCell>
        <mxCell id="761dnnyQ54j-Cl0NHfQN-45007" value="48" style="rounded=0;whiteSpace=wrap;html=1;fontSize=32;" parent="gpTkN6G0r_nqj8FTX6VW-8" vertex="1">
          <mxGeometry x="920" width="480" height="480" as="geometry" />
        </mxCell>
        <mxCell id="761dnnyQ54j-Cl0NHfQN-45008" value="38" style="rounded=0;whiteSpace=wrap;html=1;fontSize=32;" parent="gpTkN6G0r_nqj8FTX6VW-8" vertex="1">
          <mxGeometry x="540" width="380" height="380" as="geometry" />
        </mxCell>
        <mxCell id="gpTkN6G0r_nqj8FTX6VW-9" value="" style="group;flipV=1;" vertex="1" connectable="0" parent="1">
          <mxGeometry x="2940" y="9150" width="1400" height="1280" as="geometry" />
        </mxCell>
        <mxCell id="761dnnyQ54j-Cl0NHfQN-46960" value="39" style="rounded=0;whiteSpace=wrap;html=1;fontSize=32;" parent="gpTkN6G0r_nqj8FTX6VW-9" vertex="1">
          <mxGeometry y="890" width="390" height="390" as="geometry" />
        </mxCell>
        <mxCell id="761dnnyQ54j-Cl0NHfQN-46961" value="46" style="rounded=0;whiteSpace=wrap;html=1;fontSize=32;" parent="gpTkN6G0r_nqj8FTX6VW-9" vertex="1">
          <mxGeometry x="390" y="820" width="460" height="460" as="geometry" />
        </mxCell>
        <mxCell id="761dnnyQ54j-Cl0NHfQN-46962" value="32" style="rounded=0;whiteSpace=wrap;html=1;fontSize=32;" parent="gpTkN6G0r_nqj8FTX6VW-9" vertex="1">
          <mxGeometry y="570" width="320" height="320" as="geometry" />
        </mxCell>
        <mxCell id="761dnnyQ54j-Cl0NHfQN-46963" value="7" style="rounded=0;whiteSpace=wrap;html=1;fontSize=32;" parent="gpTkN6G0r_nqj8FTX6VW-9" vertex="1">
          <mxGeometry x="320" y="820" width="70" height="70" as="geometry" />
        </mxCell>
        <mxCell id="761dnnyQ54j-Cl0NHfQN-46964" value="55" style="rounded=0;whiteSpace=wrap;html=1;fontSize=32;" parent="gpTkN6G0r_nqj8FTX6VW-9" vertex="1">
          <mxGeometry x="850" y="730" width="550" height="550" as="geometry" />
        </mxCell>
        <mxCell id="761dnnyQ54j-Cl0NHfQN-46965" value="25" style="rounded=0;whiteSpace=wrap;html=1;fontSize=32;" parent="gpTkN6G0r_nqj8FTX6VW-9" vertex="1">
          <mxGeometry x="320" y="570" width="250" height="250" as="geometry" />
        </mxCell>
        <mxCell id="761dnnyQ54j-Cl0NHfQN-46966" value="28" style="rounded=0;whiteSpace=wrap;html=1;fontSize=32;" parent="gpTkN6G0r_nqj8FTX6VW-9" vertex="1">
          <mxGeometry x="570" y="540" width="280" height="280" as="geometry" />
        </mxCell>
        <mxCell id="761dnnyQ54j-Cl0NHfQN-46967" value="19" style="rounded=0;whiteSpace=wrap;html=1;fontSize=32;" parent="gpTkN6G0r_nqj8FTX6VW-9" vertex="1">
          <mxGeometry x="850" y="540" width="190" height="190" as="geometry" />
        </mxCell>
        <mxCell id="761dnnyQ54j-Cl0NHfQN-46968" value="36" style="rounded=0;whiteSpace=wrap;html=1;fontSize=32;" parent="gpTkN6G0r_nqj8FTX6VW-9" vertex="1">
          <mxGeometry x="1040" y="370" width="360" height="360" as="geometry" />
        </mxCell>
        <mxCell id="761dnnyQ54j-Cl0NHfQN-46969" value="57" style="rounded=0;whiteSpace=wrap;html=1;fontSize=32;" parent="gpTkN6G0r_nqj8FTX6VW-9" vertex="1">
          <mxGeometry width="570" height="570" as="geometry" />
        </mxCell>
        <mxCell id="761dnnyQ54j-Cl0NHfQN-46970" value="30" style="rounded=0;whiteSpace=wrap;html=1;fontSize=32;" parent="gpTkN6G0r_nqj8FTX6VW-9" vertex="1">
          <mxGeometry x="570" y="240" width="300" height="300" as="geometry" />
        </mxCell>
        <mxCell id="761dnnyQ54j-Cl0NHfQN-46971" value="17" style="rounded=0;whiteSpace=wrap;html=1;fontSize=32;" parent="gpTkN6G0r_nqj8FTX6VW-9" vertex="1">
          <mxGeometry x="870" y="370" width="170" height="170" as="geometry" />
        </mxCell>
        <mxCell id="761dnnyQ54j-Cl0NHfQN-46972" value="16" style="rounded=0;whiteSpace=wrap;html=1;fontSize=32;" parent="gpTkN6G0r_nqj8FTX6VW-9" vertex="1">
          <mxGeometry x="870" y="210" width="160" height="160" as="geometry" />
        </mxCell>
        <mxCell id="761dnnyQ54j-Cl0NHfQN-46973" value="24" style="rounded=0;whiteSpace=wrap;html=1;fontSize=32;" parent="gpTkN6G0r_nqj8FTX6VW-9" vertex="1">
          <mxGeometry x="570" width="240" height="240" as="geometry" />
        </mxCell>
        <mxCell id="761dnnyQ54j-Cl0NHfQN-46974" value="6" style="rounded=0;whiteSpace=wrap;html=1;fontSize=32;" parent="gpTkN6G0r_nqj8FTX6VW-9" vertex="1">
          <mxGeometry x="810" y="180" width="60" height="60" as="geometry" />
        </mxCell>
        <mxCell id="761dnnyQ54j-Cl0NHfQN-46975" value="37" style="rounded=0;whiteSpace=wrap;html=1;fontSize=32;" parent="gpTkN6G0r_nqj8FTX6VW-9" vertex="1">
          <mxGeometry x="1030" width="370" height="370" as="geometry" />
        </mxCell>
        <mxCell id="761dnnyQ54j-Cl0NHfQN-46976" value="3" style="rounded=0;whiteSpace=wrap;html=1;fontSize=32;" parent="gpTkN6G0r_nqj8FTX6VW-9" vertex="1">
          <mxGeometry x="870" y="180" width="30" height="30" as="geometry" />
        </mxCell>
        <mxCell id="761dnnyQ54j-Cl0NHfQN-46977" value="4" style="rounded=0;whiteSpace=wrap;html=1;fontSize=32;" parent="gpTkN6G0r_nqj8FTX6VW-9" vertex="1">
          <mxGeometry x="900" y="170" width="40" height="40" as="geometry" />
        </mxCell>
        <mxCell id="761dnnyQ54j-Cl0NHfQN-46978" value="8" style="rounded=0;whiteSpace=wrap;html=1;fontSize=32;" parent="gpTkN6G0r_nqj8FTX6VW-9" vertex="1">
          <mxGeometry x="810" y="100" width="80" height="80" as="geometry" />
        </mxCell>
        <mxCell id="761dnnyQ54j-Cl0NHfQN-46979" value="1" style="rounded=0;whiteSpace=wrap;html=1;fontSize=32;" parent="gpTkN6G0r_nqj8FTX6VW-9" vertex="1">
          <mxGeometry x="890" y="170" width="10" height="10" as="geometry" />
        </mxCell>
        <mxCell id="761dnnyQ54j-Cl0NHfQN-46980" value="9" style="rounded=0;whiteSpace=wrap;html=1;fontSize=32;" parent="gpTkN6G0r_nqj8FTX6VW-9" vertex="1">
          <mxGeometry x="940" y="120" width="90" height="90" as="geometry" />
        </mxCell>
        <mxCell id="761dnnyQ54j-Cl0NHfQN-46981" value="5" style="rounded=0;whiteSpace=wrap;html=1;fontSize=32;" parent="gpTkN6G0r_nqj8FTX6VW-9" vertex="1">
          <mxGeometry x="890" y="120" width="50" height="50" as="geometry" />
        </mxCell>
        <mxCell id="761dnnyQ54j-Cl0NHfQN-46982" value="2" style="rounded=0;whiteSpace=wrap;html=1;fontSize=32;" parent="gpTkN6G0r_nqj8FTX6VW-9" vertex="1">
          <mxGeometry x="890" y="100" width="20" height="20" as="geometry" />
        </mxCell>
        <mxCell id="761dnnyQ54j-Cl0NHfQN-46983" value="12" style="rounded=0;whiteSpace=wrap;html=1;fontSize=32;" parent="gpTkN6G0r_nqj8FTX6VW-9" vertex="1">
          <mxGeometry x="910" width="120" height="120" as="geometry" />
        </mxCell>
        <mxCell id="761dnnyQ54j-Cl0NHfQN-46984" value="10" style="rounded=0;whiteSpace=wrap;html=1;fontSize=32;" parent="gpTkN6G0r_nqj8FTX6VW-9" vertex="1">
          <mxGeometry x="810" width="100" height="100" as="geometry" />
        </mxCell>
      </root>
    </mxGraphModel>
  </diagram>
</mxfile>
